
<svg xmlns="http://www.w3.org/2000/svg" version="1.1" xmlns:xlink="http://www.w3.org/1999/xlink" preserveAspectRatio="none" x="0px" y="0px" width="455px" height="206px" viewBox="0 0 455 206">
<defs>
<g id="Layer0_0_MEMBER_0_FILL">
<path fill="#000000" stroke="none" d="
M 205.4 102.95
L 204.1 102.95
Q 203.4 105.3 198.85 104.45 190.55 102.95 188.4 102.95 176.15 102.95 168.8 110.3 161.6 117.4 161.6 128.65 161.6 139.7 169.2 146.95 176.9 154.25 188.9 154.25 190.35 154.25 200.8 152.7 206.75 151.85 207.4 154.25
L 208.9 154.25 208.9 138.85
Q 208.9 135.05 210.2 133.05 211.8 130.65 215.5 130.65
L 215.5 128.75 190.6 128.75 190.6 130.65
Q 194.35 130.65 195.9 133.05 197.1 135 197.1 138.85
L 197.1 142.75
Q 197.1 148.6 193.75 150.6 192.05 151.65 188.9 151.65 182.4 151.35 178.55 145.5 174.5 139.4 174.5 128.65 174.5 117.9 178.3 111.9 181.9 106.15 188.3 105.75 195.35 105.3 199.45 108.95 203.2 112.25 204.6 119.05
L 206.5 119.05 205.4 102.95 Z"/>
</g>

<g id="Layer0_1_MEMBER_0_FILL">
<path fill="#000000" stroke="none" d="
M 229.95 120.2
Q 226.1 120.4 223.25 121.55 219.3 123.15 218.15 126.2
L 218.15 126.25
Q 217.4 128.05 217.9 129.55 218.35 130.95 219.75 131.65 221.5 132.4 223.15 131.95 225.15 131.4 226.25 129.25 224.15 127.5 225.45 125.1 226.75 122.65 229.95 122.85 234.1 122.85 235.35 130.25 235.85 133.35 233.2 134 228.75 134.45 225.45 135.15 219.55 136.35 217 139.75 214.75 142.75 215.55 146.95 216.25 150.6 219.9 152.45 223.05 154.05 227.85 154.05 234.8 154.05 237.75 149.35 238.5 151.7 241.4 153 243.85 154.05 247.05 154.05 252 154.05 254.45 151.25
L 253.85 149.65
Q 252.6 150.25 251.5 150.2 250.4 150.15 249.95 149.45 249.35 148.65 248.45 143.15
L 247.15 133
Q 246.15 126.15 242.3 123.25 238.35 120.2 229.95 120.2
M 226.65 145.25
L 226.65 145.2
Q 226.25 142.8 227.6 140.7 228.95 138.65 231.35 138 234.1 137.25 235 136.8 235.9 136.35 236.25 135.5 236.75 138.55 237.05 142.5 237.4 148.75 232.95 149.85 232.65 149.95 231.85 149.95 230.05 149.95 228.6 148.65 227 147.3 226.65 145.25 Z"/>
</g>

<g id="Layer0_2_MEMBER_0_FILL">
<path fill="#000000" stroke="none" d="
M 274.05 103.5
L 272.25 103.5
Q 269.35 106.2 264.4 107.8 260.25 109.1 256.65 109.1
L 256.65 111.1
Q 260.3 111.1 261.7 113.5 262.75 115.35 262.75 119.3
L 262.75 143.4
Q 262.75 147.4 261.75 149.2 260.35 151.6 256.65 151.6
L 256.65 153.5 280.15 153.5 280.15 151.6
Q 276.45 151.6 275.1 149.2 274.05 147.4 274.05 143.4
L 274.05 103.5 Z"/>
</g>

<g id="Layer0_3_MEMBER_0_FILL">
<path fill="#000000" stroke="none" d="
M 299.65 103.5
L 297.85 103.5
Q 294.95 106.2 290 107.8 285.85 109.1 282.25 109.1
L 282.25 111.1
Q 285.9 111.1 287.3 113.5 288.35 115.35 288.35 119.3
L 288.35 143.4
Q 288.35 147.4 287.35 149.2 285.95 151.6 282.25 151.6
L 282.25 153.5 305.75 153.5 305.75 151.6
Q 302.05 151.6 300.7 149.2 299.65 147.4 299.65 143.4
L 299.65 103.5 Z"/>
</g>

<g id="Layer0_4_MEMBER_0_FILL">
<path fill="#000000" stroke="none" d="
M 335.65 124.2
Q 331.5 120.45 324.25 120.45 315.9 120.45 310.75 125.3 305.35 130.4 306.05 138.7
L 306.1 138.7
Q 306.65 145.35 311.55 149.7 316.65 154.2 324.5 154.2 330.5 154.2 334.95 150.8 338.55 147.95 340.6 143.35 340.1 142.85 339.35 142.35 334.55 147.6 326.95 146.55 319.15 145.45 317.85 138.7
L 339.65 135
Q 339.95 128.1 335.65 124.2
M 327.85 125.7
Q 329.2 128.4 329 133.9
L 317.35 135.9
Q 316.7 130.65 318.1 127.1 319.6 123.3 322.85 123 326.35 122.7 327.85 125.7 Z"/>
</g>

<g id="Layer0_5_MEMBER_0_FILL">
<path fill="#000000" stroke="none" d="
M 370.85 120.45
Q 370.25 120.35 369.1 120.35 363.5 120.35 360.1 126.95
L 360.1 120.5 358.2 120.5
Q 355.2 123.15 350.35 124.75 346.2 126.1 342.6 126.1
L 342.6 128
Q 346.3 128 347.7 130.4 348.7 132.2 348.7 136.2
L 348.7 143.4
Q 348.7 147.45 347.7 149.2 346.35 151.6 342.6 151.6
L 342.6 153.5 365.85 153.5 365.85 151.6
Q 362.2 151.6 360.95 149.2 360.1 147.5 360.1 143.4
L 360.1 131.5
Q 360.3 129.1 362 127.95 363.7 126.75 366.1 127.5 367.95 128.1 368.4 130.15 368.7 131.8 368.1 134 370.65 134.85 373.05 133.75 375.4 132.6 376.35 130.15 377.5 126.95 376.05 124.1 374.5 121.1 370.85 120.45 Z"/>
</g>

<g id="Layer0_6_MEMBER_0_MEMBER_0_FILL">
<path fill="#000000" stroke="none" d="
M 370.85 120.45
Q 370.25 120.35 369.1 120.35 363.5 120.35 360.1 126.95
L 360.1 120.5 358.2 120.5
Q 355.2 123.15 350.35 124.75 346.2 126.1 342.6 126.1
L 342.6 128
Q 346.3 128 347.7 130.4 348.7 132.2 348.7 136.2
L 348.7 143.4
Q 348.7 147.45 347.7 149.2 346.35 151.6 342.6 151.6
L 342.6 153.5 365.85 153.5 365.85 151.6
Q 362.2 151.6 360.95 149.2 360.1 147.5 360.1 143.4
L 360.1 131.5
Q 360.3 129.1 362 127.95 363.7 126.75 366.1 127.5 367.95 128.1 368.4 130.15 368.7 131.8 368.1 134 370.65 134.85 373.05 133.75 375.4 132.6 376.35 130.15 377.5 126.95 376.05 124.1 374.5 121.1 370.85 120.45 Z"/>
</g>

<g id="Layer0_8_MEMBER_0_FILL">
<path fill="#000000" stroke="none" d="
M 403.7 121.3
L 403.7 123.1
Q 406.7 123.1 407.55 123.95 408.55 124.95 407.4 127.7
L 402 141.4 395.7 127.7
Q 394.65 125.1 395.25 124.1 395.85 123.1 398.2 123.1
L 398.2 121.2 377.6 121.2 377.6 123.1
Q 379.7 123.1 381.1 124.05 382.2 124.85 383.2 126.6
L 397 154.2
Q 393.85 161.95 388.9 162.6 384.6 162.9 382.6 159.5 380.55 160.5 379.35 162.7 377.9 165.35 378.9 168.2 379.6 170.05 381.45 171 383.05 171.8 385.1 171.8 390.1 171.8 394.1 165.5 396.4 161.9 399.5 153.6
L 409.7 127.8
Q 410.6 125.45 411.85 124.4 413.3 123.2 415.8 123.2
L 415.8 121.3 403.7 121.3 Z"/>
</g>

<g id="Layer0_9_MEMBER_0_FILL">
<path fill="#000000" stroke="none" d="
M 199.55 40.55
Q 193.85 37.6 182.3 37.6
L 161.6 37.6 161.55 37.65 161.55 39.65
Q 165.3 39.65 166.9 42.05 168.15 44 168.15 47.85
L 168.15 77.5
Q 168.15 81.35 166.9 83.3 165.3 85.7 161.55 85.7
L 161.55 87.7 184.85 87.7
Q 196.45 87.7 202.75 84.3 209.35 80.7 209.35 73.6 209.35 63.65 196.15 60.7 205.5 57.6 205.5 50 205.5 43.6 199.55 40.55
M 184.55 62.3
Q 190.5 62.3 193.65 65.45 196.55 68.4 196.55 73.5 196.55 78.65 193.65 81.65 190.5 84.85 184.55 84.85
L 180.15 84.85 180.15 62.3 184.55 62.3
M 180.2 40.45
L 184 40.45
Q 189.1 40.45 191.55 43.35 193.6 45.75 193.6 49.95 193.6 54.5 191.1 56.95 188.45 59.5 183.2 59.5
L 180.2 59.5 180.2 40.45 Z"/>
</g>

<g id="Layer0_10_MEMBER_0_FILL">
<path fill="#000000" stroke="none" d="
M 227.35 37.6
L 225.6 37.6
Q 222.65 40.3 217.75 41.85 213.55 43.2 210 43.2
L 210 45.2
Q 213.65 45.2 215.05 47.6 216.1 49.45 216.1 53.4
L 216.1 77.5
Q 216.1 81.5 215.1 83.3 213.7 85.7 210 85.7
L 210 87.6 233.5 87.6 233.5 85.7
Q 229.8 85.7 228.4 83.3 227.35 81.5 227.35 77.5
L 227.35 37.6 Z"/>
</g>

<g id="Layer0_11_MEMBER_0_FILL">
<path fill="#000000" stroke="none" d="
M 253 54.5
L 251.15 54.5
Q 248.3 57.2 243.4 58.8 239.25 60.1 235.65 60.1
L 235.65 62.1
Q 239.35 62.1 240.75 64.5 241.8 66.3 241.8 70.3
L 241.8 77.5
Q 241.8 81.5 240.75 83.3 239.4 85.7 235.65 85.7
L 235.65 87.6 258.85 87.6 258.85 85.7
Q 255.2 85.7 253.95 83.3 253.05 81.6 253 77.5
L 253 54.5
M 246.5 37.5
L 246.3 37.5
Q 243.45 37.5 241.35 39.5 239.25 41.45 239.15 44.3 239.25 47.1 241.25 49.05 243.25 51.05 246 51.1 248.9 51.2 251 49.2 253.15 47.2 253.3 44.3 253.2 41.55 251.2 39.55 249.25 37.6 246.5 37.5 Z"/>
</g>

<g id="Layer0_12_MEMBER_0_FILL">
<path fill="#000000" stroke="none" d="
M 278.4 60.1
L 278.35 60.1 278.35 54.5 276.5 54.5
Q 273.55 57.15 268.7 58.75 264.5 60.1 261 60.1
L 261 62
Q 264.65 62 266.05 64.4 267.1 66.25 267.1 70.2
L 267.1 77.4
Q 267.1 81.4 266.05 83.2 264.65 85.6 261 85.6
L 261 87.5 284.2 87.5 284.2 85.6
Q 280.55 85.6 279.3 83.2 278.4 81.5 278.4 77.4
L 278.4 68.8
Q 278.4 64.95 279.85 62.7 281.4 60.2 284.4 60.2 287.65 60.2 289 62.7 289.7 64 290.4 68.3
L 291.8 77.4
Q 292.25 81.4 291.55 83.15 290.5 85.6 286.9 85.6
L 286.9 87.5 309.5 87.5 309.5 85.6
Q 305.9 85.6 304.5 83.1 303.7 81.6 303.2 77.4
L 301.9 67.3
Q 300.95 60.6 298 57.5 295.05 54.4 289.7 54.4 282.3 54.55 278.4 60.1 Z"/>
</g>

<g id="Layer0_13_MEMBER_0_FILL">
<path fill="#000000" stroke="none" d="
M 345.9 37.6
L 344.1 37.6
Q 341.15 40.3 336.25 41.85 332.05 43.2 328.5 43.2
L 328.5 45.2
Q 332.15 45.2 333.55 47.6 334.6 49.45 334.6 53.4
L 334.6 58.3
Q 331.5 55.2 327.1 54.6 319.3 53.5 313.95 58.7 308.8 63.65 308.8 71.4 308.8 78.9 314 83.65 319.1 88.3 327.1 88.3 332.1 88.3 335.8 84.9 337.95 88.3 343.6 88.3 346.55 88.3 348.5 87.05 350.45 85.75 351.7 83
L 350.5 82.2
Q 349.4 84.1 347.7 83.7 346.55 83.45 346.15 81.65 345.9 80.45 345.9 77.3
L 345.9 37.6
M 330.25 60.3
Q 332.65 63.8 333.8 70.2 334.95 76.75 333.9 80.8 332.8 85 329.6 85.5
L 328.8 85.6
Q 325.85 85.55 323.65 82.05 321.45 78.65 320.4 72.6
L 320.35 72.6
Q 319.2 66.05 320.3 62 321.4 57.8 324.6 57.3 327.75 56.8 330.25 60.3 Z"/>
</g>

<g id="Layer0_14_FILL">
<path fill="#000000" stroke="none" d="
M 148.7 96.2
Q 148.7 72.05 131.85 55 115.05 37.95 91.15 37.95 67.3 37.95 50.5 55 33.7 72.05 33.7 96.2 33.7 120.35 50.55 137.45 67.35 154.5 91.2 154.5 115 154.5 131.85 137.45 148.7 120.35 148.7 96.2
M 86.3 73.85
L 94.4 65.65 107.3 78.75 119.65 66 127.75 74.2 115.25 86.9 134 105.9 125.9 114.1 107.15 95.1 94.65 107.8 86.65 99.5 86.7 99.5 99.2 86.85 86.3 73.85
M 81.4 78.85
L 89.5 87 77 99.6 95.65 118.6 87.55 126.8 68.85 107.8 56.35 120.5 48.25 112.3 60.75 99.6 48.25 87 56.4 78.85 68.9 91.5 81.4 78.85 Z"/>
</g>

<path id="Layer0_14_1_STROKES" stroke="#FFFFFF" stroke-opacity="0" stroke-width="1" stroke-linejoin="round" stroke-linecap="round" fill="none" d="
M 86.7 99.5
L 99.2 86.85 86.3 73.85 94.4 65.65 107.3 78.75 119.65 66 127.75 74.2 115.25 86.9 134 105.9 125.9 114.1 107.15 95.1 94.65 107.8 86.65 99.5 86.7 99.5 Z
M 81.4 78.85
L 89.5 87 77 99.6 95.65 118.6 87.55 126.8 68.85 107.8 56.35 120.5 48.25 112.3 60.75 99.6 48.25 87 56.4 78.85 68.9 91.5 81.4 78.85 Z
M 33.7 96.2
Q 33.7 120.35 50.55 137.45 67.35 154.5 91.2 154.5 115 154.5 131.85 137.45 148.7 120.35 148.7 96.2 148.7 72.05 131.85 55 115.05 37.95 91.15 37.95 67.3 37.95 50.5 55 33.7 72.05 33.7 96.2 Z"/>
</defs>

<g transform="matrix( 1, 0, 0, 1, 0,0) ">
<use xlink:href="#Layer0_0_MEMBER_0_FILL"/>
</g>

<g transform="matrix( 1, 0, 0, 1, 0,0) ">
<use xlink:href="#Layer0_1_MEMBER_0_FILL"/>
</g>

<g transform="matrix( 1, 0, 0, 1, 0,0) ">
<use xlink:href="#Layer0_2_MEMBER_0_FILL"/>
</g>

<g transform="matrix( 1, 0, 0, 1, 0,0) ">
<use xlink:href="#Layer0_3_MEMBER_0_FILL"/>
</g>

<g transform="matrix( 1, 0, 0, 1, 0,0) ">
<use xlink:href="#Layer0_4_MEMBER_0_FILL"/>
</g>

<g transform="matrix( 1, 0, 0, 1, 0,0) ">
<use xlink:href="#Layer0_5_MEMBER_0_FILL"/>
</g>

<g transform="matrix( 1, 0, 0, 1, 0,0) ">
<use xlink:href="#Layer0_6_MEMBER_0_MEMBER_0_FILL"/>
</g>

<g transform="matrix( 1, 0, 0, 1, 0,0) ">
<use xlink:href="#Layer0_8_MEMBER_0_FILL"/>
</g>

<g transform="matrix( 1, 0, 0, 1, 0,0) ">
<use xlink:href="#Layer0_9_MEMBER_0_FILL"/>
</g>

<g transform="matrix( 1, 0, 0, 1, 0,0) ">
<use xlink:href="#Layer0_10_MEMBER_0_FILL"/>
</g>

<g transform="matrix( 1, 0, 0, 1, 0,0) ">
<use xlink:href="#Layer0_11_MEMBER_0_FILL"/>
</g>

<g transform="matrix( 1, 0, 0, 1, 0,0) ">
<use xlink:href="#Layer0_12_MEMBER_0_FILL"/>
</g>

<g transform="matrix( 1, 0, 0, 1, 0,0) ">
<use xlink:href="#Layer0_13_MEMBER_0_FILL"/>
</g>

<g transform="matrix( 1, 0, 0, 1, 0,0) ">
<use xlink:href="#Layer0_14_FILL"/>

<use xlink:href="#Layer0_14_1_STROKES"/>
</g>
</svg>
